<?xml version="1.0" encoding="utf-8"?>
<!-- Generator: Adobe Illustrator 13.0.0, SVG Export Plug-In . SVG Version: 6.00 Build 14948)  -->
<!DOCTYPE svg PUBLIC "-//W3C//DTD SVG 1.1//EN" "http://www.w3.org/Graphics/SVG/1.1/DTD/svg11.dtd">
<svg version="1.1" id="Ebene_1" xmlns="http://www.w3.org/2000/svg" xmlns:xlink="http://www.w3.org/1999/xlink" x="0px" y="0px"
	 width="320px" height="320px" viewBox="0 0 320 320" enable-background="new 0 0 320 320" xml:space="preserve">
<title>backend-logo</title>
<path display="none" d="M224,161.066c4.693,0,13.12-0.96,21.334-1.066c14.398-14.613,32-55.894,32-91.2
	c0-21.333-38.188-27.733-76.374-27.733c-16,0-22.187,3.094-22.187,19.094C178.773,90.133,201.6,145.28,224,161.066z"/>
<path display="none" d="M128,182.721v-19.734l19.733-1.492c0,0,10.667-0.854,19.521-1.173c-17.601-32.96-32-74.667-32-94.506
	c0-12.907,3.093-17.28,7.36-21.333c-36.907,4.267-81.28,17.92-95.467,35.093c-3.498,6.073-5.061,13.069-4.48,20.053
	c0,48.64,46.08,152.106,85.333,174.72V182.721z"/>
<path id="schadow_x5F_back_x5F_tp" fill="#7C7C7C" d="M157.751,145.596c7.944,0,14.385,6.44,14.385,14.385
	c0,7.944-6.441,14.385-14.385,14.385c-7.945,0-14.385-6.44-14.385-14.385C143.366,152.037,149.807,145.596,157.751,145.596z"/>
<radialGradient id="back_x5F_tp_1_" cx="845.9277" cy="562.3516" r="14.3853" gradientTransform="matrix(1 0 0 1 -688.3203 -402.7051)" gradientUnits="userSpaceOnUse">
	<stop  offset="0" style="stop-color:#333333"/>
	<stop  offset="1" style="stop-color:#FFFFFF"/>
</radialGradient>
<path id="back_x5F_tp" fill="url(#back_x5F_tp_1_)" stroke="#FFFFFF" stroke-miterlimit="10" d="M157.608,145.262
	c7.945,0,14.384,6.439,14.384,14.385c0,7.943-6.439,14.385-14.384,14.385c-7.944,0-14.385-6.441-14.385-14.385
	C143.223,151.701,149.663,145.262,157.608,145.262z"/>
<circle id="blau" fill="#005E9E" cx="157.919" cy="159.766" r="9.96"/>
<path id="schadow_x5F_back_x5F_3" fill="#5E5D5D" d="M168.428,142.69c4.252,0,7.701,3.449,7.701,7.701s-3.449,7.701-7.701,7.701
	c-4.253,0-7.701-3.449-7.701-7.701S164.175,142.69,168.428,142.69z"/>
<radialGradient id="back_x5F_3_1_" cx="108.0015" cy="932.3926" r="14.3853" gradientTransform="matrix(0.5353 0 0 0.5353 110.557 -348.9098)" gradientUnits="userSpaceOnUse">
	<stop  offset="0" style="stop-color:#333333"/>
	<stop  offset="1" style="stop-color:#FFFFFF"/>
</radialGradient>
<path id="back_x5F_3" fill="url(#back_x5F_3_1_)" stroke="#FFFFFF" stroke-miterlimit="10" d="M168.369,142.5
	c4.254,0,7.701,3.447,7.701,7.7c0,4.253-3.447,7.7-7.701,7.7c-4.252,0-7.699-3.447-7.699-7.7
	C160.67,145.947,164.117,142.5,168.369,142.5z"/>
<path id="orange" fill="#EB7900" d="M168.621,144.975c2.959,0,5.357,2.398,5.357,5.357c0,2.958-2.398,5.357-5.357,5.357
	s-5.357-2.399-5.357-5.357C163.264,147.373,165.662,144.975,168.621,144.975z"/>
<g id="tp">
	<g>
		<path fill="#FFFFFF" d="M156.006,156.804v1.554h-1.469v2.97c0,0.601,0.017,0.952,0.042,1.05c0.028,0.099,0.092,0.183,0.194,0.245
			c0.1,0.065,0.221,0.099,0.363,0.099c0.199,0,0.487-0.063,0.864-0.188l0.183,1.513c-0.5,0.195-1.067,0.291-1.699,0.291
			c-0.388,0-0.737-0.062-1.047-0.176c-0.312-0.118-0.54-0.272-0.688-0.458c-0.146-0.19-0.245-0.441-0.299-0.76
			c-0.046-0.23-0.069-0.688-0.069-1.375v-3.215h-0.988v-1.554h0.988v-1.464l2.157-1.137v2.601h1.47v0.001l0,0L156.006,156.804
			L156.006,156.804z"/>
		<path fill="#FFFFFF" d="M157.438,156.804h2.006v1.083c0.261-0.369,0.613-0.672,1.057-0.902c0.444-0.231,0.936-0.348,1.477-0.348
			c0.944,0,1.744,0.336,2.405,1.006c0.657,0.67,0.986,1.605,0.986,2.802c0,1.231-0.332,2.189-0.996,2.871
			c-0.664,0.685-1.467,1.023-2.409,1.023c-0.45,0-0.856-0.079-1.226-0.243c-0.364-0.162-0.745-0.441-1.148-0.832v3.712h-2.154
			L157.438,156.804L157.438,156.804z M159.566,160.363c0,0.825,0.181,1.439,0.544,1.835c0.363,0.396,0.802,0.594,1.324,0.594
			c0.5,0,0.914-0.183,1.248-0.546c0.33-0.363,0.497-0.96,0.497-1.787c0-0.771-0.171-1.346-0.514-1.72
			c-0.338-0.374-0.765-0.563-1.27-0.563c-0.524,0-0.962,0.185-1.309,0.553C159.739,159.098,159.566,159.641,159.566,160.363z"/>
	</g>
</g>
<g id="back">
	<g>
		<path fill="#E5E5E5" d="M166.338,151.432l1.246-0.128c0.039,0.266,0.148,0.469,0.322,0.608c0.176,0.141,0.383,0.21,0.633,0.21
			c0.266,0,0.49-0.083,0.672-0.251c0.184-0.17,0.271-0.396,0.271-0.682c0-0.269-0.086-0.484-0.26-0.643
			c-0.176-0.158-0.383-0.237-0.639-0.237c-0.164,0-0.361,0.026-0.592,0.08l0.145-0.875c0.35,0.006,0.613-0.057,0.797-0.19
			s0.275-0.312,0.275-0.534c0-0.188-0.068-0.339-0.203-0.45c-0.133-0.112-0.313-0.169-0.535-0.169c-0.217,0-0.408,0.065-0.563,0.191
			c-0.156,0.127-0.25,0.313-0.285,0.558l-1.186-0.167c0.082-0.339,0.205-0.61,0.373-0.812c0.168-0.203,0.4-0.363,0.697-0.479
			c0.297-0.115,0.633-0.173,1.002-0.173c0.637,0,1.141,0.167,1.521,0.504c0.316,0.275,0.473,0.586,0.473,0.934
			c0,0.492-0.32,0.885-0.967,1.178c0.385,0.068,0.695,0.222,0.924,0.462c0.23,0.24,0.346,0.527,0.346,0.867
			c0,0.492-0.215,0.912-0.646,1.259c-0.43,0.346-0.965,0.52-1.609,0.52c-0.607,0-1.115-0.146-1.516-0.438
			C166.633,152.283,166.402,151.901,166.338,151.432z"/>
	</g>
</g>
<path fill="#FFFFFF" d="M173.221,173.324h-0.648v2.742h-1.564v-7.971c0,0,1.152-0.109,2.104-0.109
	c2.064-0.009,2.631,0.905,2.631,2.65C175.742,172.639,174.875,173.324,173.221,173.324z M173.313,169.348
	c-0.25-0.008-0.498,0.014-0.74,0.064v2.568h0.721c0.539,0,0.869-0.494,0.869-1.262S173.961,169.348,173.313,169.348z"/>
<path fill="#FFFFFF" d="M167.033,176.203c-0.914,0-2.258-0.101-2.258-0.101v-8.007c0,0,1.324-0.118,2.074-0.118
	c1.828,0,2.523,0.64,2.523,2.166c0,1.087-0.521,1.48-1.016,1.617c0.604,0.064,1.234,0.612,1.234,1.828
	C169.582,175.746,168.477,176.203,167.033,176.203z M167.096,169.375c-0.256-0.013-0.512-0.013-0.768,0v1.828h0.604
	c0.641,0,0.914-0.283,0.914-0.978s-0.328-0.878-0.75-0.878V169.375L167.096,169.375z M167.023,172.547h-0.686v2.258
	c0,0,0.402,0,0.822,0c0.631,0,0.842-0.448,0.842-1.17C168.002,172.767,167.518,172.547,167.023,172.547z"/>
</svg>
