<?xml version="1.0" encoding="utf-8"?>
<!-- Generator: Adobe Illustrator 13.0.0, SVG Export Plug-In . SVG Version: 6.00 Build 14948)  -->
<!DOCTYPE svg PUBLIC "-//W3C//DTD SVG 1.1//EN" "http://www.w3.org/Graphics/SVG/1.1/DTD/svg11.dtd">
<svg version="1.1" id="Ebene_1" xmlns="http://www.w3.org/2000/svg" xmlns:xlink="http://www.w3.org/1999/xlink" x="0px" y="0px"
	 width="320px" height="320px" viewBox="0 0 320 320" enable-background="new 0 0 320 320" xml:space="preserve">
<title>backend-logo</title>
<path display="none" d="M224,161.066c4.693,0,13.12-0.96,21.334-1.066c14.398-14.613,32-55.894,32-91.2
	c0-21.333-38.188-27.733-76.374-27.733c-16,0-22.187,3.094-22.187,19.094C178.773,90.133,201.6,145.28,224,161.066z"/>
<path display="none" d="M128,182.721v-19.734l19.733-1.491c0,0,10.667-0.854,19.521-1.173c-17.601-32.96-32-74.667-32-94.506
	c0-12.907,3.093-17.28,7.36-21.333c-36.907,4.267-81.28,17.92-95.467,35.093c-3.498,6.073-5.061,13.069-4.48,20.053
	c0,48.64,46.08,152.105,85.333,174.721V182.721z"/>
<path id="schadow_x5F_back_x5F_tp" fill="#7C7C7C" d="M157.679,145.48c8.233,0,14.906,6.673,14.906,14.905
	c0,8.232-6.673,14.905-14.906,14.905c-8.232,0-14.905-6.673-14.905-14.905C142.774,152.154,149.447,145.48,157.679,145.48z"/>
<radialGradient id="back_x5F_tp_1_" cx="983.5107" cy="-611.7051" r="14.9045" gradientTransform="matrix(1 0 0 -1 -825.9805 -451.665)" gradientUnits="userSpaceOnUse">
	<stop  offset="0" style="stop-color:#333333"/>
	<stop  offset="1" style="stop-color:#FFFFFF"/>
</radialGradient>
<path id="back_x5F_tp" fill="url(#back_x5F_tp_1_)" stroke="#FFFFFF" stroke-miterlimit="10" d="M157.531,145.135
	c8.233,0,14.904,6.671,14.904,14.905c0,8.23-6.671,14.905-14.904,14.905c-8.232,0-14.905-6.675-14.905-14.905
	C142.626,151.807,149.299,145.135,157.531,145.135z"/>
<circle id="blau" fill="#005E9E" cx="157.853" cy="160.162" r="10.32"/>
<path id="schadow_x5F_back_x5F_3" fill="#5E5D5D" d="M168.741,142.471c4.407,0,7.979,3.573,7.979,7.979
	c0,4.406-3.571,7.979-7.979,7.979c-4.406,0-7.979-3.573-7.979-7.979C160.763,146.043,164.335,142.471,168.741,142.471z"/>
<radialGradient id="back_x5F_3_1_" cx="366.1816" cy="-1208.4253" r="14.9053" gradientTransform="matrix(0.5353 0 0 -0.5353 -27.3356 -496.6185)" gradientUnits="userSpaceOnUse">
	<stop  offset="0" style="stop-color:#333333"/>
	<stop  offset="1" style="stop-color:#FFFFFF"/>
</radialGradient>
<path id="back_x5F_3" fill="url(#back_x5F_3_1_)" stroke="#FFFFFF" stroke-miterlimit="10" d="M168.682,142.273
	c4.406,0,7.979,3.571,7.979,7.979c0,4.407-3.573,7.978-7.979,7.978c-4.405,0-7.979-3.571-7.979-7.978
	C160.703,145.844,164.276,142.273,168.682,142.273z"/>
<path id="orange" fill="#EB7900" d="M168.941,144.836c3.065,0,5.551,2.485,5.551,5.551c0,3.065-2.484,5.55-5.551,5.55
	c-3.065,0-5.551-2.485-5.551-5.55C163.391,147.321,165.876,144.836,168.941,144.836z"/>
<g id="tp">
	<g>
		<path fill="#FFFFFF" d="M155.871,157.094v1.611h-1.522v3.076c0,0.622,0.017,0.987,0.043,1.088
			c0.029,0.102,0.096,0.188,0.202,0.254c0.103,0.067,0.229,0.103,0.376,0.103c0.206,0,0.505-0.065,0.895-0.196l0.19,1.568
			c-0.519,0.201-1.106,0.301-1.761,0.301c-0.402,0-0.763-0.063-1.085-0.182c-0.323-0.122-0.56-0.281-0.713-0.476
			c-0.15-0.196-0.253-0.456-0.311-0.785c-0.047-0.24-0.07-0.715-0.07-1.427V158.7h-1.024v-1.611h1.024v-1.517l2.235-1.178v2.695
			h1.523v0.001l0,0L155.871,157.094L155.871,157.094z"/>
		<path fill="#FFFFFF" d="M157.355,157.094h2.079v1.122c0.27-0.383,0.635-0.695,1.094-0.935c0.459-0.24,0.97-0.36,1.53-0.36
			c0.979,0,1.807,0.349,2.492,1.042c0.68,0.694,1.021,1.663,1.021,2.903c0,1.276-0.344,2.268-1.03,2.975
			c-0.69,0.708-1.521,1.062-2.498,1.062c-0.465,0-0.887-0.084-1.269-0.255c-0.378-0.166-0.773-0.455-1.192-0.86v3.846h-2.231
			L157.355,157.094L157.355,157.094z M159.559,160.781c0,0.855,0.188,1.491,0.564,1.901c0.376,0.41,0.831,0.615,1.371,0.615
			c0.518,0,0.948-0.188,1.292-0.564c0.345-0.378,0.517-0.995,0.517-1.851c0-0.801-0.177-1.396-0.531-1.783
			c-0.353-0.388-0.794-0.583-1.316-0.583c-0.544,0-0.997,0.19-1.356,0.572C159.739,159.472,159.559,160.033,159.559,160.781z"/>
	</g>
</g>
<g id="back">
	<g>
		<path fill="#E5E5E5" d="M166.577,151.527l1.291-0.132c0.04,0.275,0.152,0.486,0.333,0.63c0.183,0.147,0.396,0.217,0.657,0.217
			c0.273,0,0.506-0.086,0.694-0.26c0.19-0.176,0.281-0.41,0.281-0.707c0-0.278-0.09-0.502-0.271-0.665
			c-0.18-0.164-0.396-0.245-0.661-0.245c-0.17,0-0.373,0.026-0.612,0.082l0.148-0.906c0.363,0.006,0.637-0.059,0.827-0.198
			s0.285-0.323,0.285-0.553c0-0.195-0.071-0.351-0.21-0.465c-0.138-0.116-0.325-0.177-0.556-0.177c-0.226,0-0.423,0.067-0.581,0.199
			c-0.163,0.131-0.26,0.324-0.298,0.578l-1.228-0.173c0.085-0.352,0.214-0.632,0.388-0.841c0.173-0.21,0.413-0.376,0.722-0.497
			c0.307-0.119,0.656-0.18,1.037-0.18c0.659,0,1.185,0.173,1.578,0.522c0.328,0.286,0.489,0.608,0.489,0.968
			c0,0.51-0.333,0.917-1.003,1.221c0.4,0.07,0.721,0.23,0.958,0.479c0.238,0.248,0.358,0.546,0.358,0.898
			c0,0.51-0.222,0.944-0.67,1.304c-0.445,0.36-1.001,0.539-1.669,0.539c-0.628,0-1.153-0.15-1.568-0.454
			C166.883,152.41,166.644,152.014,166.577,151.527z"/>
	</g>
</g>
<path fill="#9B9B9B" d="M173.708,174.211h-0.673v2.841h-1.619v-8.258c0,0,1.193-0.113,2.179-0.113
	c2.139-0.011,2.726,0.938,2.726,2.745C176.32,173.501,175.422,174.211,173.708,174.211z M173.802,170.091
	c-0.257-0.007-0.514,0.015-0.767,0.067v2.66h0.749c0.559,0,0.898-0.512,0.898-1.307S174.475,170.091,173.802,170.091z"/>
<path fill="#9B9B9B" d="M167.296,177.194c-0.946,0-2.339-0.104-2.339-0.104v-8.296c0,0,1.372-0.124,2.149-0.124
	c1.894,0,2.614,0.664,2.614,2.246c0,1.126-0.541,1.534-1.052,1.675c0.624,0.066,1.278,0.635,1.278,1.894
	C169.938,176.72,168.792,177.194,167.296,177.194z M167.361,170.121c-0.265-0.016-0.529-0.016-0.794,0v1.893h0.624
	c0.664,0,0.948-0.294,0.948-1.013c0-0.72-0.342-0.91-0.777-0.91L167.361,170.121L167.361,170.121L167.361,170.121z M167.286,173.405
	h-0.71v2.34c0,0,0.417,0,0.854,0c0.651,0,0.87-0.464,0.87-1.212C168.3,173.633,167.798,173.405,167.286,173.405z"/>
</svg>
