<?xml version="1.0" encoding="utf-8"?>
<!-- Generator: Adobe Illustrator 13.0.0, SVG Export Plug-In . SVG Version: 6.00 Build 14948)  -->
<!DOCTYPE svg PUBLIC "-//W3C//DTD SVG 1.1//EN" "http://www.w3.org/Graphics/SVG/1.1/DTD/svg11.dtd">
<svg version="1.1" id="Ebene_1" xmlns="http://www.w3.org/2000/svg" xmlns:xlink="http://www.w3.org/1999/xlink" x="0px" y="0px"
	 width="320px" height="106px" viewBox="0 0 320 106" enable-background="new 0 0 320 106" xml:space="preserve">
<title>Zeichenfläche 1</title>
<path d="M114.176,84.175c-1.918,0-3.88-0.159-3.88-0.159V68.02c0,0,2.12-0.158,3.615-0.158c2.746,0,4.389,1.123,4.389,4.176
	c0.133,1.41-0.583,2.764-1.823,3.445c0.912,0.318,2.215,1.145,2.215,3.699C118.66,83.009,116.921,84.175,114.176,84.175z
	 M114.176,69.504c-0.628-0.002-1.255,0.045-1.876,0.139v5.141h1.897c0.912,0,2.12-0.159,2.12-2.586
	C116.307,70.31,115.894,69.504,114.176,69.504L114.176,69.504z M114.42,76.426h-2.12v5.968c0,0,1.145,0.116,2.12,0.116
	c1.229,0,2.258-0.477,2.258-3.18C116.646,77.38,116.074,76.426,114.42,76.426z"/>
<path d="M126.313,84.175c-3.773,0-4.77-2.745-4.77-8.343c0-5.363,1.007-7.971,4.77-7.971c3.763,0,4.77,2.607,4.77,7.971
	C131.083,81.43,130.076,84.175,126.313,84.175z M126.313,69.525c-2.056,0-2.745,1.389-2.745,6.424s0.689,6.561,2.745,6.561
	c2.057,0,2.746-1.643,2.746-6.561s-0.689-6.413-2.746-6.413V69.525z"/>
<path d="M138.8,84.175c-3.773,0-4.77-2.745-4.77-8.343c0-5.363,1.007-7.971,4.77-7.971c3.763,0,4.77,2.607,4.77,7.971
	C143.602,81.43,142.595,84.175,138.8,84.175z M138.8,69.525c-2.056,0-2.745,1.389-2.745,6.424s0.689,6.561,2.745,6.561
	c2.057,0,2.746-1.643,2.746-6.561s-0.625-6.413-2.746-6.413V69.525z"/>
<path d="M150.46,69.759v14.257h-1.993V69.759h-3.52V68.02h9.021v1.739H150.46z"/>
<path d="M158.177,84.175c-0.893-0.015-1.782-0.128-2.65-0.339V82.16c0.942,0.236,1.912,0.351,2.883,0.34
	c1.579,0,2.258-0.912,2.258-2.809c0-2.216-0.615-2.852-1.855-3.106c-2.534-0.53-3.498-1.622-3.498-4.313
	c0-3.266,1.876-4.41,4.505-4.41c0.817,0.017,1.627,0.131,2.417,0.339v1.665c-0.869-0.205-1.757-0.318-2.65-0.34
	c-1.205-0.041-2.216,0.902-2.257,2.107c-0.004,0.129,0.002,0.256,0.021,0.384c0,1.854,0.318,2.374,1.759,2.671
	c2.194,0.456,3.583,1.42,3.583,4.77C162.703,83.264,160.9,84.175,158.177,84.175z"/>
<path d="M169.763,69.759v14.257h-1.993V69.759h-3.529V68.02h9.021v1.739H169.763z"/>
<path d="M181.57,77.072l3.181,6.943h-2.194l-2.968-6.636h-2.035v6.625h-1.993V68.02c0,0,1.961-0.158,3.858-0.158
	c3.478,0,4.431,1.855,4.431,4.664C183.86,74.879,183.193,76.426,181.57,77.072z M179.695,69.515
	c-0.709-0.002-1.418,0.044-2.121,0.138v6.074h2.121c1.282,0,2.119-0.551,2.119-3.043c0.011-2.215-0.487-3.18-2.109-3.18
	L179.695,69.515z"/>
<path d="M194.206,84.016l-0.869-4.039h-4.452l-0.891,4.039h-2.035l3.859-15.996h2.629l3.794,15.996H194.206z M191.101,69.536
	l-1.854,8.724h3.72L191.101,69.536z"/>
<path d="M202.665,77.984h-1.919v6.031h-1.992V68.02c0,0,1.961-0.158,3.857-0.158c3.478,0,4.474,2.12,4.474,4.961
	C207.096,76.32,205.908,77.984,202.665,77.984z M202.898,69.504c-0.709-0.002-1.418,0.044-2.12,0.139v6.678h2.12
	c1.282,0,2.119-0.848,2.119-3.34c0.043-2.278-0.498-3.477-2.13-3.477H202.898z"/>
<path d="M220.027,77.984h-1.918v6.031h-1.993V68.02c0,0,1.962-0.158,3.858-0.158c3.477,0,4.474,2.12,4.474,4.961
	C224.459,76.32,223.271,77.984,220.027,77.984z M220.262,69.504c-0.709-0.002-1.418,0.044-2.121,0.139v6.678h2.121
	c1.281,0,2.119-0.848,2.119-3.34c0.043-2.278-0.509-3.477-2.131-3.477H220.262z"/>
<path d="M233.5,84.016l-0.869-4.039h-4.451l-0.891,4.039h-2.035l3.857-15.996h2.629l3.795,15.996H233.5z M230.395,69.536
	l-1.855,8.724h3.721L230.395,69.536z"/>
<path d="M244.281,83.74c-0.83,0.217-1.679,0.348-2.534,0.393c-3.265,0-4.61-1.602-4.61-8.406s1.547-7.887,4.887-7.887
	c0.762,0.02,1.52,0.127,2.258,0.318v1.686c-0.877-0.197-1.773-0.296-2.672-0.297c-1.664,0-2.449,0.826-2.449,6.359
	c0,5.756,0.828,6.529,2.471,6.529c0.893-0.021,1.78-0.135,2.65-0.338V83.74z"/>
<path d="M253.63,84.016l-3.53-7.336l-0.826,1.368v5.968h-1.993V68.02h1.993v7.018l4.24-7.018h2.119l-4.346,6.996l4.568,9H253.63z"/>
<path d="M265.375,84.016l-0.869-4.039h-4.453l-0.89,4.039h-2.035l3.858-15.996h2.629l3.795,15.996H265.375z M262.269,69.536
	l-1.854,8.724h3.721L262.269,69.536z"/>
<path d="M277.342,83.74c-1.179,0.244-2.379,0.375-3.582,0.393c-3.498,0-4.75-1.602-4.75-8.406s1.686-7.908,5.301-7.908
	c0.859,0.026,1.715,0.133,2.555,0.318v1.643c-0.979-0.189-1.972-0.289-2.969-0.297c-1.961,0-2.852,0.869-2.852,6.36
	c0,5.756,0.796,6.583,2.608,6.583c0.604-0.011,1.206-0.064,1.802-0.159v-4.993h-2.035v-1.664h3.933L277.342,83.74z"/>
<path d="M280.84,84.016V68.02h7.494v1.665h-5.501v5.236h4.939v1.664h-4.939v5.756h5.501v1.664L280.84,84.016z"/>
<path d="M121.84,34.164v23.881h-5.607V34.164h-5.936v-4.992h17.533v4.992H121.84z"/>
<path d="M141.98,45.336v12.72h-5.777v-12.72l-7.59-16.165h6.106l4.611,11.108l4.579-11.14h5.819L141.98,45.336z"/>
<path d="M161.061,48.103h-2.354v9.942h-5.65V29.171c0,0,4.166-0.414,7.589-0.414c7.42,0,9.54,3.466,9.54,9.614
	C170.145,45.58,167.007,48.103,161.061,48.103z M161.389,33.708c-0.9-0.026-1.801,0.056-2.682,0.244v9.275h2.597
	c1.94,0,3.181-1.77,3.181-4.579c-0.074-3.212-0.774-4.939-3.127-4.939H161.389z"/>
<path d="M183.32,58.459c-8.162,0-9.646-5.077-9.646-15.179c0-9.688,1.729-14.522,9.646-14.522s9.646,4.823,9.646,14.522
	C192.955,53.382,191.471,58.459,183.32,58.459z M183.32,33.22c-2.926,0-3.922,1.813-3.922,10.271c0,8.459,0.985,10.515,3.922,10.515
	c2.936,0,3.922-2.184,3.922-10.515s-1.008-10.282-3.922-10.282V33.22z"/>
<path d="M203.312,58.416c-1.954-0.087-3.899-0.32-5.819-0.699v-4.579c1.691,0.392,3.416,0.625,5.151,0.7
	c1.982,0,3.255-1.4,3.255-3.965c0-3.18-0.827-4.579-3.34-4.579h-3.18v-4.495h2.767c2.354,0,3.297-1.441,3.297-3.922
	s-0.827-3.509-2.884-3.509c-1.641,0.066-3.271,0.301-4.865,0.7V29.5c1.779-0.387,3.588-0.621,5.406-0.7
	c5.3,0,7.834,1.897,7.834,8.204c0,2.47-0.827,5.035-3.096,5.82c2.269,0.456,3.594,2.554,3.594,6.635
	C211.432,56.393,207.891,58.416,203.312,58.416z"/>
<path d="M242.16,57.717c-1.642,0.355-3.313,0.561-4.992,0.615c-6.359,0-9.158-2.64-9.158-15.18c0-12.54,3.381-14.268,9.688-14.268
	c1.499,0.057,2.988,0.249,4.453,0.573v4.993c-1.639-0.375-3.313-0.581-4.993-0.615c-2.396,0-3.424,1.06-3.424,9.614
	s0.911,9.943,3.424,9.943c1.681-0.041,3.353-0.247,4.993-0.615L242.16,57.717z"/>
<path d="M263.287,58.045V33.337l-3.552,15.01h-4.239l-3.711-15.01v24.708h-5.077V29.171h8.575l2.428,11.108l2.47-11.098h8.204
	v28.863H263.287z"/>
<path d="M278.424,58.3c-1.971,0.002-3.936-0.204-5.862-0.614v-4.876c1.79,0.401,3.614,0.622,5.448,0.657
	c2.555,0,4.24-0.954,4.24-3.593c0-3.01-1.283-3.964-3.509-4.41c-4.579-0.954-6.36-3.466-6.36-8.289c0-6.106,3.509-8.29,9.816-8.29
	c1.723,0.022,3.439,0.228,5.119,0.615v4.865c-1.818-0.369-3.667-0.575-5.522-0.615c-2.353,0-3.667,0.869-3.667,2.968
	c0,2.64,0.656,3.18,3.254,3.752c3.964,0.827,6.635,2.852,6.635,8.989C287.953,57.24,283.903,58.3,278.424,58.3z"/>
<circle id="schadow_x5F_back_x5F_tp" fill="#7C7C7C" cx="51.903" cy="54.02" r="32.836"/>
<radialGradient id="back_x5F_tp_1_" cx="326.916" cy="-72.083" r="32.8362" gradientTransform="matrix(1 0 0 -1 -275.3398 -18.8252)" gradientUnits="userSpaceOnUse">
	<stop  offset="0" style="stop-color:#333333"/>
	<stop  offset="1" style="stop-color:#FFFFFF"/>
</radialGradient>
<circle id="back_x5F_tp" fill="url(#back_x5F_tp_1_)" stroke="#FFFFFF" stroke-miterlimit="10" cx="51.576" cy="53.258" r="32.837"/>
<circle id="blau" fill="#005E9E" cx="52.285" cy="53.528" r="22.736"/>
<circle id="schadow_x5F_back_x5F_3" fill="#5E5D5D" cx="76.272" cy="32.13" r="17.579"/>
<radialGradient id="back_x5F_3_1_" cx="-420.3916" cy="-85.4609" r="32.8362" gradientTransform="matrix(0.5353 0 0 -0.5353 301.1779 -14.0548)" gradientUnits="userSpaceOnUse">
	<stop  offset="0" style="stop-color:#333333"/>
	<stop  offset="1" style="stop-color:#FFFFFF"/>
</radialGradient>
<circle id="back_x5F_3" fill="url(#back_x5F_3_1_)" stroke="#FFFFFF" stroke-miterlimit="10" cx="76.141" cy="31.692" r="17.577"/>
<circle id="orange" fill="#EB7900" cx="76.714" cy="31.994" r="12.229"/>
<g id="tp">
	<g>
		<path fill="#FFFFFF" d="M47.919,46.769v3.547h-3.354v6.778c0,1.371,0.034,2.174,0.096,2.398c0.064,0.225,0.21,0.415,0.439,0.561
			c0.227,0.146,0.504,0.223,0.829,0.223c0.454,0,1.113-0.144,1.973-0.428l0.418,3.453c-1.142,0.442-2.436,0.662-3.879,0.662
			c-0.886,0-1.682-0.136-2.391-0.4c-0.712-0.271-1.232-0.621-1.567-1.047c-0.332-0.43-0.559-1.008-0.688-1.734
			c-0.105-0.521-0.158-1.566-0.158-3.139v-7.332h-2.254v-3.549h2.254V43.42l4.925-2.596v5.938h3.355v0.002l0,0V46.769z"/>
		<path fill="#FFFFFF" d="M51.189,46.769h4.579v2.47c0.595-0.843,1.399-1.531,2.412-2.059s2.135-0.793,3.37-0.793
			c2.157,0,3.982,0.767,5.489,2.295c1.502,1.529,2.252,3.664,2.252,6.396c0,2.811-0.757,4.996-2.271,6.554
			c-1.517,1.558-3.349,2.336-5.5,2.336c-1.027,0-1.954-0.187-2.792-0.557c-0.832-0.37-1.706-1.005-2.627-1.898v8.474h-4.911V46.769z
			 M56.044,54.892c0,1.888,0.414,3.286,1.242,4.189s1.832,1.354,3.021,1.354c1.142,0,2.09-0.416,2.849-1.244
			c0.755-0.832,1.135-2.191,1.135-4.08c0-1.763-0.389-3.071-1.173-3.926c-0.776-0.855-1.746-1.285-2.897-1.285
			c-1.199,0-2.198,0.42-2.988,1.261C56.441,52.004,56.044,53.244,56.044,54.892z"/>
	</g>
</g>
<g id="back">
	<g>
		<path fill="#E5E5E5" d="M71.505,34.504l2.845-0.292c0.088,0.607,0.337,1.07,0.733,1.388c0.401,0.322,0.879,0.48,1.447,0.48
			c0.604,0,1.118-0.191,1.531-0.573c0.418-0.387,0.621-0.903,0.621-1.557c0-0.614-0.198-1.106-0.595-1.466
			c-0.399-0.361-0.879-0.54-1.457-0.54c-0.375,0-0.824,0.06-1.35,0.182l0.327-1.997c0.798,0.015,1.402-0.129,1.82-0.435
			c0.42-0.306,0.628-0.711,0.628-1.218c0-0.43-0.155-0.774-0.461-1.027c-0.306-0.255-0.714-0.387-1.225-0.387
			c-0.5,0-0.929,0.148-1.285,0.437s-0.571,0.714-0.65,1.273l-2.708-0.382c0.187-0.773,0.471-1.392,0.851-1.853
			c0.384-0.463,0.912-0.829,1.593-1.094c0.676-0.263,1.445-0.396,2.286-0.396c1.447,0,2.605,0.382,3.475,1.151
			c0.719,0.628,1.077,1.337,1.077,2.13c0,1.123-0.733,2.021-2.207,2.689c0.879,0.155,1.586,0.506,2.109,1.056
			c0.526,0.547,0.791,1.204,0.791,1.98c0,1.123-0.489,2.081-1.476,2.874c-0.984,0.791-2.207,1.187-3.674,1.187
			c-1.393,0-2.543-0.332-3.458-1.001C72.179,36.448,71.651,35.576,71.505,34.504z"/>
	</g>
</g>
</svg>
